PathFileType	4	(X/Y/Z)	C:\Users\WrightLab\Desktop\Jo\P5V31.trc
DataRate	CameraRate	NumFrames	NumMarkers	Units	OrigDataRate	OrigDataStartFrame	OrigNumFrames
100.00	100.00	       9	19	mm	100.00	454	       907
Frame#	Time	Headset_Front			Headset_Back			Headset_Left			Headset_Right			Left_Shoulder			Right_Shoulder			Sternum			C7			Left Elbow			Right Elbow			Left Wrist			Right Wrist			Left ASIS			Right ASIS			S2			Left Knee			Right Knee			Left Ankle			Right Ankle			
		X1	Y1	Z1	X2	Y2	Z2	X3	Y3	Z3	X4	Y4	Z4	X5	Y5	Z5	X6	Y6	Z6	X7	Y7	Z7	X8	Y8	Z8	X9	Y9	Z9	X10	Y10	Z10	X11	Y11	Z11	X12	Y12	Z12	X13	Y13	Z13	X14	Y14	Z14	X15	Y15	Z15	X16	Y16	Z16	X17	Y17	Z17	X18	Y18	Z18	X19	Y19	Z19	

454	4.530	-253.68344	1495.39978	-1080.15649	-376.53101	1525.72351	-807.66315				-287.51001	1440.57483	-719.24585													-80.17577	1249.48950	-869.16083	-505.19138	1204.37524	-801.92377	69.33759	1199.54639	-1003.42999	-473.47507	1170.82214	-555.93597	-53.72823	903.69470	-909.00824	-342.61108	909.21350	-858.36200	-191.72101	946.92426	-1157.56421	-56.06894	471.53308	-939.59619	-356.60855	518.24835	-770.26001	-89.28179	70.33190	-1156.36072	-371.19412	97.22428	-738.68134	
455	4.540	-255.48312	1494.87207	-1074.24805	-378.30600	1524.99597	-801.33093				-290.72888	1439.34229	-717.27783													-81.73005	1249.12170	-863.25360	-507.03412	1203.53027	-795.93347	67.21403	1198.07861	-996.95813	-475.62454	1169.96204	-550.70013	-55.46328	902.72540	-903.70062	-343.74579	908.00146	-851.94672	-192.79314	946.20331	-1151.00122	-58.43528	471.30298	-937.31549	-357.73026	516.50940	-766.79077	-89.55994	69.46015	-1158.17383	-370.91989	96.06461	-730.88208	
456	4.550	-257.34827	1494.20923	-1068.10669	-380.38116	1523.90723	-795.39215				-292.52472	1438.82874	-711.84589	-218.52109	1277.59106	-884.71997										-83.42667	1248.87048	-856.66150	-508.52716	1202.62158	-789.70203	64.16841	1198.21118	-990.63446	-477.88705	1168.56323	-544.82239	-57.37075	902.14270	-898.29572	-344.73776	907.37433	-845.55774	-194.22885	945.49030	-1144.67664	-62.58213	470.66263	-934.26489	-358.93936	515.02417	-762.71326	-90.53995	69.49160	-1157.57800	-372.56812	95.41006	-724.47363	
457	4.560	-259.14279	1493.49951	-1061.35974	-382.31729	1523.28369	-789.51788				-292.28232	1438.14124	-701.54785	-221.47363	1277.12402	-880.68292	-418.01926	1422.34802	-900.90106	-153.85942	1586.39807	-776.97845				-86.41393	1248.67090	-850.20306	-510.82672	1201.74902	-783.91919	63.47586	1198.54944	-985.38379	-480.51620	1167.12549	-538.55444	-59.54859	902.26392	-892.51636	-346.10110	906.89966	-839.09290	-195.64024	945.15002	-1138.42712	-65.17637	470.29321	-931.01532	-360.89536	513.50659	-758.33386	-90.63509	70.69949	-1158.58191	-373.83023	94.25602	-719.19336	
458	4.570	-261.29465	1492.53040	-1055.23450	-384.39343	1522.61096	-783.32861				-294.41687	1437.29578	-694.91974	-220.19827	1277.18604	-871.39276	-420.17813	1421.62183	-895.18982	-155.86784	1586.05359	-771.40619				-87.62732	1248.65991	-844.54590	-513.10278	1200.81580	-777.70325	62.12728	1197.48682	-977.95929	-482.15588	1165.63989	-532.53442	-61.40536	901.84680	-886.07379	-346.62350	906.14563	-833.73444	-197.23439	944.57782	-1132.07324	-68.00832	470.32458	-927.88013	-362.13705	512.15912	-753.65259				-373.11014	90.97453	-715.57159	
459	4.580	-263.44241	1491.90320	-1049.88330	-386.57053	1521.50659	-776.59918				-297.55154	1436.64880	-689.10791	-225.61716	1274.38037	-868.75385	-422.11252	1420.29651	-888.80389							-90.13887	1247.98425	-838.93640	-515.46271	1200.01282	-771.99017	60.42837	1197.38940	-972.19281	-484.99606	1164.99170	-526.85785	-63.60149	900.74451	-880.30786	-348.58768	905.22046	-827.61981	-198.93701	943.69373	-1125.57800	-71.78870	469.74823	-924.98462	-363.92255	510.41998	-748.53217				-372.30835	89.42924	-713.59705	
460	4.590	-265.71283	1490.89978	-1043.40637	-388.78519	1520.92053	-771.09344				-298.89450	1435.44617	-683.46906	-224.64894	1276.12488	-859.11176	-423.93988	1419.10034	-882.17615							-92.48726	1247.67383	-832.72144	-517.29791	1198.45166	-764.77368	57.20689	1197.62793	-964.27991	-487.50980	1163.68591	-520.42725	-65.39244	900.68250	-874.16278	-348.87140	904.15405	-821.42969	-200.67990	942.02728	-1117.48889	-74.86773	469.41788	-921.79303	-365.45294	508.79025	-743.18671	-91.29174	73.24555	-1156.26990	-371.91125	87.23328	-712.72833	
461	4.600	-268.00763	1489.61853	-1036.36035	-391.05505	1519.91614	-764.64948				-300.64755	1434.70837	-676.73163	-229.08649	1275.33765	-854.90955	-426.76727	1418.35938	-875.66199	-163.19165	1584.23547	-752.94067				-94.27809	1247.76160	-825.49506	-520.22003	1197.89966	-758.98383	56.17888	1195.48743	-957.62732	-489.45349	1162.85999	-514.08447	-67.13026	900.55750	-868.10242	-350.68127	903.78229	-813.72327	-202.77962	941.07336	-1111.00330	-77.79151	468.53238	-917.20367	-366.82718	506.81033	-737.55908	-90.75209	74.41367	-1153.38184	-369.41483	84.14825	-713.10547	
462	4.610	-270.53922	1488.80176	-1030.62891	-393.35999	1518.92383	-758.02466				-304.03897	1432.81079	-673.82697	-229.18958	1274.30359	-848.54797	-429.82709	1416.85303	-869.72003	-165.61218	1583.09338	-746.52429				-95.95176	1246.80933	-819.00958	-523.01532	1196.66870	-751.76270	52.46645	1196.06421	-950.80090	-491.85776	1160.89978	-506.84546	-69.26260	900.02924	-860.53290	-352.45789	902.24438	-806.14728	-205.06543	940.00726	-1104.77246	-81.17720	467.06732	-913.98785	-366.90878	505.78293	-732.01630	-89.73792	75.96277	-1152.26318	-369.66406	83.77249	-711.22931	
